# xmcd
#
# Track frame offsets: 
#        150
#        16112
#        29377
#        52092
#        66940
#        88357
#        107337
#        125502
#        138575
#        151345
#        167860
#        193092
#
# Disc length: 3613 seconds
#
# Revision: 0
# Processed by: cddbd v1.4PL0 Copyright (c) Steve Scherf et al.
# Submitted via: ExactAudioCopy v0.90b3
#
DISCID=a60e1b0c
DTITLE=Kenny Rogers - The Gambler
DYEAR=1900
DGENRE=Country
TTITLE0=The Gambler
TTITLE1=I Wish That I Could Hurt That Way Again
TTITLE2=The King Of Oak Street
TTITLE3=Making Music For Money
TTITLE4=The Hoodooin' Of Miss Fannie Deberry
TTITLE5=She Believes In Me
TTITLE6=Tennessee Bottle
TTITLE7=Sleep Tight, Goodnight Man
TTITLE8=A Little More Like Me (The Crucifixion)
TTITLE9=San Francisco Mabel Joy
TTITLE10=Morgana Jones
TTITLE11=Data Track
EXTD=
EXTT0=
EXTT1=
EXTT2=
EXTT3=
EXTT4=
EXTT5=
EXTT6=
EXTT7=
EXTT8=
EXTT9=
EXTT10=
EXTT11=
PLAYORDER=
